<svg width="40" height="40" viewBox="0 0 40 40" fill="none" xmlns="http://www.w3.org/2000/svg">
<path fill-rule="evenodd" clip-rule="evenodd" d="M20.0001 0C31.0384 0 40 8.96174 40 20C40 31.0383 31.0384 40 20.0001 40C8.96179 40 0 31.0383 0 20C0 8.96174 8.96179 0 20.0001 0ZM20.0001 3.1413C29.3047 3.1413 36.8589 10.6954 36.8589 20C36.8589 29.3046 29.3047 36.8587 20.0001 36.8587C10.6955 36.8587 3.14131 29.3046 3.14131 20C3.14131 10.6954 10.6955 3.1413 20.0001 3.1413Z" fill="black"/>
<path fill-rule="evenodd" clip-rule="evenodd" d="M15.7208 5.03412C21.5073 5.03412 26.2052 9.73212 26.2052 15.5184C26.2052 21.3049 21.5073 26.0027 15.7208 26.0027C9.93433 26.0027 5.23652 21.3049 5.23652 15.5184C5.23652 9.73212 9.93433 5.03412 15.7208 5.03412ZM15.7208 6.68078C20.5984 6.68078 24.5585 10.6409 24.5585 15.5184C24.5585 20.3961 20.5984 24.356 15.7208 24.356C10.8431 24.356 6.88319 20.3961 6.88319 15.5184C6.88319 10.6409 10.8431 6.68078 15.7208 6.68078Z" fill="black"/>
<path fill-rule="evenodd" clip-rule="evenodd" d="M17.8244 2.93274C25.9255 2.93274 32.5025 9.50973 32.5025 17.6107C32.5025 25.7117 25.9255 32.2887 17.8244 32.2887C9.72341 32.2887 3.14639 25.7117 3.14639 17.6107C3.14639 9.50973 9.72341 2.93274 17.8244 2.93274ZM17.8244 5.23823C24.6531 5.23823 30.1972 10.7821 30.1972 17.6107C30.1972 24.4393 24.6531 29.9834 17.8244 29.9834C10.9958 29.9834 5.45168 24.4393 5.45168 17.6107C5.45168 10.7821 10.9958 5.23823 17.8244 5.23823Z" fill="black"/>
</svg>
